<mxfile host="app.diagrams.net" modified="2023-06-01T04:02:20.717Z" agent="Mozilla/5.0 (Windows NT 10.0; Win64; x64; rv:109.0) Gecko/20100101 Firefox/113.0" etag="f-6Qj5oCARXDWKf2qD_6" version="21.3.6" type="device">
  <diagram name="Page-1" id="TtwZJ9YMyL45LSqe0QGF">
    <mxGraphModel dx="1563" dy="596" grid="1" gridSize="10" guides="1" tooltips="1" connect="1" arrows="1" fold="1" page="1" pageScale="1" pageWidth="850" pageHeight="1100" math="0" shadow="0">
      <root>
        <mxCell id="0" />
        <mxCell id="1" parent="0" />
        <mxCell id="2fGCAzGPFohAxpp_c-tU-41" value="" style="rounded=1;whiteSpace=wrap;html=1;fillColor=#dae8fc;strokeColor=#6c8ebf;" vertex="1" parent="1">
          <mxGeometry x="220" y="170" width="450" height="180" as="geometry" />
        </mxCell>
        <mxCell id="2fGCAzGPFohAxpp_c-tU-43" style="edgeStyle=orthogonalEdgeStyle;rounded=0;orthogonalLoop=1;jettySize=auto;html=1;" edge="1" parent="1" source="2fGCAzGPFohAxpp_c-tU-34" target="2fGCAzGPFohAxpp_c-tU-35">
          <mxGeometry relative="1" as="geometry" />
        </mxCell>
        <mxCell id="2fGCAzGPFohAxpp_c-tU-44" value="&lt;div&gt;REST requests to&lt;/div&gt;&lt;div&gt;/stream&lt;/div&gt;&lt;div&gt;/batch&lt;br&gt;&lt;/div&gt;" style="edgeLabel;html=1;align=center;verticalAlign=middle;resizable=0;points=[];" vertex="1" connectable="0" parent="2fGCAzGPFohAxpp_c-tU-43">
          <mxGeometry x="-0.3441" y="-2" relative="1" as="geometry">
            <mxPoint y="7" as="offset" />
          </mxGeometry>
        </mxCell>
        <mxCell id="2fGCAzGPFohAxpp_c-tU-34" value="Client" style="rounded=1;whiteSpace=wrap;html=1;" vertex="1" parent="1">
          <mxGeometry x="260" y="60" width="100" height="30" as="geometry" />
        </mxCell>
        <mxCell id="2fGCAzGPFohAxpp_c-tU-38" style="edgeStyle=orthogonalEdgeStyle;rounded=0;orthogonalLoop=1;jettySize=auto;html=1;" edge="1" parent="1" source="2fGCAzGPFohAxpp_c-tU-35" target="2fGCAzGPFohAxpp_c-tU-36">
          <mxGeometry relative="1" as="geometry" />
        </mxCell>
        <mxCell id="2fGCAzGPFohAxpp_c-tU-39" value="&lt;div&gt;load current &lt;br&gt;&lt;/div&gt;&lt;div&gt;Production model&lt;/div&gt;" style="edgeLabel;html=1;align=center;verticalAlign=middle;resizable=0;points=[];" vertex="1" connectable="0" parent="2fGCAzGPFohAxpp_c-tU-38">
          <mxGeometry x="-0.3259" y="3" relative="1" as="geometry">
            <mxPoint x="20" y="3" as="offset" />
          </mxGeometry>
        </mxCell>
        <mxCell id="2fGCAzGPFohAxpp_c-tU-35" value="&lt;div&gt;Web Server&lt;/div&gt;&lt;div&gt;(Flask)&lt;br&gt;&lt;/div&gt;" style="rounded=1;whiteSpace=wrap;html=1;" vertex="1" parent="1">
          <mxGeometry x="250" y="190" width="120" height="60" as="geometry" />
        </mxCell>
        <mxCell id="2fGCAzGPFohAxpp_c-tU-40" style="edgeStyle=orthogonalEdgeStyle;rounded=0;orthogonalLoop=1;jettySize=auto;html=1;entryX=0.5;entryY=0;entryDx=0;entryDy=0;" edge="1" parent="1" source="2fGCAzGPFohAxpp_c-tU-36" target="2fGCAzGPFohAxpp_c-tU-37">
          <mxGeometry relative="1" as="geometry" />
        </mxCell>
        <mxCell id="2fGCAzGPFohAxpp_c-tU-36" value="MLFlow Server" style="rounded=1;whiteSpace=wrap;html=1;" vertex="1" parent="1">
          <mxGeometry x="520" y="190" width="120" height="60" as="geometry" />
        </mxCell>
        <mxCell id="2fGCAzGPFohAxpp_c-tU-37" value="Artifacts (local FS or S3)" style="rounded=0;whiteSpace=wrap;html=1;" vertex="1" parent="1">
          <mxGeometry x="510" y="290" width="140" height="40" as="geometry" />
        </mxCell>
        <mxCell id="2fGCAzGPFohAxpp_c-tU-42" value="&lt;h1&gt;docker compose&lt;br&gt;&lt;/h1&gt;" style="text;html=1;strokeColor=none;fillColor=none;spacing=5;spacingTop=-20;whiteSpace=wrap;overflow=hidden;rounded=0;" vertex="1" parent="1">
          <mxGeometry x="240" y="290" width="220" height="50" as="geometry" />
        </mxCell>
      </root>
    </mxGraphModel>
  </diagram>
</mxfile>
